<svg width="419" height="37" viewBox="0 0 419 37" fill="none" xmlns="http://www.w3.org/2000/svg">
<path d="M83 4.50892C49.365 4.54235 0 20.4088 0 20.4088V37H419V4.50892C419 4.50892 392.607 22.209 371 24.211C347.679 26.3717 336.196 16.0598 313.5 11.7676C284.165 6.21962 267.908 -0.361417 237.5 0.0154739C204.193 0.428287 188.811 16.1059 155.5 16.261C126.42 16.3964 112.081 4.48002 83 4.50892Z" fill="#C75645"/>
<path d="M126.857 8.02147C87.2013 8.05128 29 22.2025 29 22.2025V37H523V8.02147C523 8.02147 491.883 23.808 466.408 25.5936C438.913 27.5207 425.374 18.3236 398.616 14.4954C364.029 9.54723 344.863 3.67766 309.012 4.0138C269.743 4.38199 251.608 18.3647 212.334 18.5031C178.049 18.6239 161.143 7.99569 126.857 8.02147Z" fill="#C75645" fill-opacity="0.73"/>
<path d="M-187.143 8.02147C-226.799 8.05128 -285 22.2025 -285 22.2025V37H209V8.02147C209 8.02147 177.883 23.808 152.408 25.5936C124.913 27.5207 111.374 18.3236 84.6158 14.4954C50.0295 9.54723 30.8634 3.67766 -4.98807 4.0138C-44.2566 4.38199 -62.3919 18.3647 -101.666 18.5031C-135.951 18.6239 -152.857 7.99569 -187.143 8.02147Z" fill="#C75645" fill-opacity="0.73"/>
</svg>
